<svg xmlns="http://www.w3.org/2000/svg" viewBox="0 0 1200 300" width="1200" height="300">
  <defs>
    <linearGradient id="bg" x1="0%" y1="0%" x2="100%" y2="100%">
      <stop offset="0%" style="stop-color:#0d1117"/>
      <stop offset="100%" style="stop-color:#161b22"/>
    </linearGradient>
    <pattern id="grid" width="30" height="30" patternUnits="userSpaceOnUse">
      <path d="M 30 0 L 0 0 0 30" fill="none" stroke="#21262d" stroke-width="0.5"/>
    </pattern>
  </defs>
  <rect width="1200" height="300" fill="url(#bg)"/>
  <rect width="1200" height="300" fill="url(#grid)" opacity="0.5"/>
  <line x1="0" y1="4" x2="1200" y2="4" stroke="#22c55e" stroke-width="4"/>
  <line x1="0" y1="296" x2="1200" y2="296" stroke="#22c55e" stroke-width="4"/>
  <!-- Windows logo simplified -->
  <g transform="translate(70, 95)" opacity="0.4">
    <rect x="0" y="0" width="45" height="45" fill="#0078d4" rx="2" transform="skewY(-3)"/>
    <rect x="50" y="-4" width="45" height="45" fill="#0078d4" rx="2" transform="skewY(-3)"/>
    <rect x="0" y="53" width="45" height="45" fill="#0078d4" rx="2" transform="skewY(-3)"/>
    <rect x="50" y="49" width="45" height="45" fill="#0078d4" rx="2" transform="skewY(-3)"/>
  </g>
  <text x="600" y="120" font-family="'Courier New', monospace" font-size="16" fill="#8b949e" text-anchor="middle" letter-spacing="4">HACK THE BOX</text>
  <text x="600" y="175" font-family="'Courier New', monospace" font-size="48" fill="#c9d1d9" text-anchor="middle" font-weight="bold">WRITEUP</text>
  <rect x="470" y="200" width="260" height="40" rx="6" fill="none" stroke="#22c55e" stroke-width="2"/>
  <text x="600" y="227" font-family="'Courier New', monospace" font-size="20" fill="#22c55e" text-anchor="middle" font-weight="bold">EASY // WINDOWS</text>
  <path d="M 20 30 L 20 15 L 35 15" fill="none" stroke="#22c55e" stroke-width="2" opacity="0.6"/>
  <path d="M 1180 30 L 1180 15 L 1165 15" fill="none" stroke="#22c55e" stroke-width="2" opacity="0.6"/>
  <path d="M 20 270 L 20 285 L 35 285" fill="none" stroke="#22c55e" stroke-width="2" opacity="0.6"/>
  <path d="M 1180 270 L 1180 285 L 1165 285" fill="none" stroke="#22c55e" stroke-width="2" opacity="0.6"/>
</svg>
