<svg xmlns="http://www.w3.org/2000/svg" viewBox="0 0 1200 300" width="1200" height="300">
  <defs>
    <linearGradient id="bg" x1="0%" y1="0%" x2="100%" y2="100%">
      <stop offset="0%" style="stop-color:#0d1117"/>
      <stop offset="100%" style="stop-color:#161b22"/>
    </linearGradient>
    <pattern id="grid" width="30" height="30" patternUnits="userSpaceOnUse">
      <path d="M 30 0 L 0 0 0 30" fill="none" stroke="#21262d" stroke-width="0.5"/>
    </pattern>
  </defs>
  <rect width="1200" height="300" fill="url(#bg)"/>
  <rect width="1200" height="300" fill="url(#grid)" opacity="0.4"/>
  <line x1="0" y1="3" x2="1200" y2="3" stroke="#f97316" stroke-width="3"/>
  <line x1="0" y1="297" x2="1200" y2="297" stroke="#f97316" stroke-width="3"/>
  <g transform="translate(70, 75)" opacity="0.2">
    <rect x="0" y="0" width="58" height="58" rx="3" fill="#0078d4" transform="rotate(-5, 30, 30)"/>
    <rect x="64" y="0" width="58" height="58" rx="3" fill="#0078d4" transform="rotate(-5, 95, 30)"/>
    <rect x="0" y="64" width="58" height="58" rx="3" fill="#0078d4" transform="rotate(-5, 30, 95)"/>
    <rect x="64" y="64" width="58" height="58" rx="3" fill="#0078d4" transform="rotate(-5, 95, 95)"/>
  </g>
  <!-- HTB hex -->
  <g transform="translate(1060, 100)" opacity="0.15">
    <polygon points="50,0 93,25 93,75 50,100 7,75 7,25" fill="none" stroke="#9fef00" stroke-width="3"/>
    <text x="50" y="58" font-family="monospace" font-size="28" fill="#9fef00" text-anchor="middle" font-weight="bold">HTB</text>
  </g>
  <text x="600" y="110" font-family="'Courier New', monospace" font-size="14" fill="#8b949e" text-anchor="middle" letter-spacing="6">HACK THE BOX</text>
  <text x="600" y="165" font-family="'Courier New', monospace" font-size="52" fill="#e6edf3" text-anchor="middle" font-weight="bold">WRITEUP</text>
  <rect x="460" y="195" width="280" height="42" rx="4" fill="none" stroke="#f97316" stroke-width="2"/>
  <text x="600" y="223" font-family="'Courier New', monospace" font-size="20" fill="#f97316" text-anchor="middle" font-weight="bold" letter-spacing="3">HARD // WINDOWS</text>
  <path d="M 20 28 L 20 14 L 34 14" fill="none" stroke="#f97316" stroke-width="1.5" opacity="0.5"/>
  <path d="M 1180 28 L 1180 14 L 1166 14" fill="none" stroke="#f97316" stroke-width="1.5" opacity="0.5"/>
  <path d="M 20 272 L 20 286 L 34 286" fill="none" stroke="#f97316" stroke-width="1.5" opacity="0.5"/>
  <path d="M 1180 272 L 1180 286 L 1166 286" fill="none" stroke="#f97316" stroke-width="1.5" opacity="0.5"/>
</svg>
