<svg xmlns="http://www.w3.org/2000/svg" viewBox="0 0 1200 300" width="1200" height="300">
  <defs>
    <linearGradient id="bg" x1="0%" y1="0%" x2="100%" y2="100%">
      <stop offset="0%" style="stop-color:#0d1117"/>
      <stop offset="100%" style="stop-color:#161b22"/>
    </linearGradient>
    <pattern id="grid" width="30" height="30" patternUnits="userSpaceOnUse">
      <path d="M 30 0 L 0 0 0 30" fill="none" stroke="#21262d" stroke-width="0.5"/>
    </pattern>
  </defs>
  <rect width="1200" height="300" fill="url(#bg)"/>
  <rect width="1200" height="300" fill="url(#grid)" opacity="0.5"/>
  <line x1="0" y1="4" x2="1200" y2="4" stroke="#00ff41" stroke-width="4"/>
  <line x1="0" y1="296" x2="1200" y2="296" stroke="#00ff41" stroke-width="4"/>
  <!-- Terminal icon -->
  <g transform="translate(70, 90)">
    <rect x="0" y="0" width="120" height="90" rx="8" fill="none" stroke="#00ff41" stroke-width="2" opacity="0.4"/>
    <text x="15" y="35" font-family="'Courier New', monospace" font-size="18" fill="#00ff41" opacity="0.5">$_</text>
    <line x1="15" y1="50" x2="85" y2="50" stroke="#00ff41" stroke-width="1" opacity="0.3"/>
    <line x1="15" y1="65" x2="65" y2="65" stroke="#00ff41" stroke-width="1" opacity="0.3"/>
  </g>
  <text x="600" y="120" font-family="'Courier New', monospace" font-size="16" fill="#8b949e" text-anchor="middle" letter-spacing="4">KEYLL0GER</text>
  <text x="600" y="175" font-family="'Courier New', monospace" font-size="48" fill="#c9d1d9" text-anchor="middle" font-weight="bold">CHEATSHEET</text>
  <rect x="470" y="200" width="260" height="40" rx="6" fill="none" stroke="#00ff41" stroke-width="2"/>
  <text x="600" y="227" font-family="'Courier New', monospace" font-size="20" fill="#00ff41" text-anchor="middle" font-weight="bold">QUICK REFERENCE</text>
  <path d="M 20 30 L 20 15 L 35 15" fill="none" stroke="#00ff41" stroke-width="2" opacity="0.6"/>
  <path d="M 1180 30 L 1180 15 L 1165 15" fill="none" stroke="#00ff41" stroke-width="2" opacity="0.6"/>
  <path d="M 20 270 L 20 285 L 35 285" fill="none" stroke="#00ff41" stroke-width="2" opacity="0.6"/>
  <path d="M 1180 270 L 1180 285 L 1165 285" fill="none" stroke="#00ff41" stroke-width="2" opacity="0.6"/>
</svg>
